# xmcd CD database file
#
# Track frame offsets:
#	150
#	32027
#	79895
#
# Disc length: 1974 seconds
#
# Revision: 2
# Processed by: cddbd v1.5.1PL2 Copyright (c) Steve Scherf et al.
# Submitted via: CDex 1.51
#
DISCID=1b07b403
DTITLE=武満徹 - Marginalia
DYEAR=1981
DGENRE=Contemporary music
TTITLE0=Winter (1971)
TTITLE1=Marginalia (1976)
TTITLE2=Gitimalya (1974)
EXTD=YEAR: 1981
EXTT0=
EXTT1=
EXTT2=
PLAYORDER=
